<?xml version="1.0" standalone="no"?>
<!DOCTYPE svg PUBLIC "-//W3C//DTD SVG 20010904//EN"
 "http://www.w3.org/TR/2001/REC-SVG-20010904/DTD/svg10.dtd">
<svg version="1.0" xmlns="http://www.w3.org/2000/svg"
 width="700.000000pt" height="700.000000pt" viewBox="0 0 700.000000 700.000000"
 preserveAspectRatio="xMidYMid meet">
<metadata>
Created by potrace 1.11, written by Peter Selinger 2001-2013
</metadata>
<g transform="translate(0.000000,700.000000) scale(0.100000,-0.100000)"
fill="#000000" stroke="none">
<path d="M3298 6985 c-2 -1 -43 -6 -92 -10 -49 -4 -98 -8 -110 -10 -11 -2 -43
-7 -71 -10 -27 -4 -59 -8 -70 -10 -11 -2 -38 -6 -60 -10 -22 -3 -69 -13 -105
-21 -36 -9 -76 -18 -90 -20 -63 -12 -254 -69 -369 -110 -507 -184 -930 -454
-1309 -839 -379 -386 -657 -836 -826 -1339 -41 -121 -93 -310 -101 -361 -1
-11 -7 -40 -13 -65 -6 -25 -13 -63 -16 -85 -4 -23 -8 -52 -11 -65 -4 -22 -8
-46 -20 -140 -25 -192 -25 -625 0 -795 2 -16 9 -64 14 -105 6 -41 13 -85 15
-96 2 -12 7 -37 10 -55 12 -70 18 -97 42 -194 45 -180 119 -400 175 -522 10
-24 19 -45 19 -49 0 -12 139 -282 176 -344 22 -36 47 -76 55 -89 139 -237 430
-581 644 -762 22 -19 49 -42 60 -52 11 -10 45 -37 75 -60 30 -23 64 -50 75
-60 28 -25 255 -175 340 -224 184 -107 414 -211 634 -287 131 -46 398 -114
506 -130 23 -4 50 -8 60 -10 11 -2 45 -7 75 -11 30 -4 64 -9 75 -11 53 -11
239 -19 415 -19 179 1 258 5 402 21 64 7 339 54 348 59 4 2 22 7 41 10 19 3
95 23 170 45 592 169 1134 498 1564 950 46 48 86 93 169 190 43 49 144 187
203 275 73 109 203 332 203 347 0 6 6 19 13 27 17 19 107 222 152 341 70 186
149 481 171 640 3 25 8 47 9 50 2 3 6 37 10 75 4 39 9 72 10 75 17 29 25 503
12 670 -9 102 -41 336 -58 410 -55 251 -120 462 -200 654 -56 133 -143 311
-183 374 -14 23 -26 44 -26 46 0 24 -230 356 -316 456 -12 14 -41 48 -64 75
-207 244 -509 497 -820 685 -91 55 -369 200 -384 200 -3 0 -29 11 -58 24 -195
87 -566 197 -748 221 -25 3 -53 8 -62 11 -19 6 -65 11 -163 19 -38 4 -77 9
-85 12 -15 6 -506 14 -512 8z m2082 -5299 c0 -2 -8 -10 -17 -17 -16 -13 -17
-12 -4 4 13 16 21 21 21 13z"/>
</g>
</svg>
